<?xml version="1.0" encoding="UTF-8" standalone="no"?>
<!-- Created with Inkscape (http://www.inkscape.org/) -->

<svg
   xmlns:dc="http://purl.org/dc/elements/1.1/"
   xmlns:cc="http://creativecommons.org/ns#"
   xmlns:rdf="http://www.w3.org/1999/02/22-rdf-syntax-ns#"
   xmlns:svg="http://www.w3.org/2000/svg"
   xmlns="http://www.w3.org/2000/svg"
   xmlns:sodipodi="http://sodipodi.sourceforge.net/DTD/sodipodi-0.dtd"
   xmlns:inkscape="http://www.inkscape.org/namespaces/inkscape"
   width="210mm"
   height="297mm"
   viewBox="0 0 744.09448819 1052.3622047"
   id="svg3336"
   version="1.1"
   inkscape:version="0.91 r13725"
   sodipodi:docname="logo.svg">
  <defs
     id="defs3338" />
  <sodipodi:namedview
     id="base"
     pagecolor="#ffffff"
     bordercolor="#666666"
     borderopacity="1.0"
     inkscape:pageopacity="0.0"
     inkscape:pageshadow="2"
     inkscape:zoom="0.35"
     inkscape:cx="375"
     inkscape:cy="520"
     inkscape:document-units="px"
     inkscape:current-layer="layer1"
     showgrid="false"
     inkscape:window-width="1301"
     inkscape:window-height="744"
     inkscape:window-x="65"
     inkscape:window-y="24"
     inkscape:window-maximized="1" />
  <metadata
     id="metadata3341">
    <rdf:RDF>
      <cc:Work
         rdf:about="">
        <dc:format>image/svg+xml</dc:format>
        <dc:type
           rdf:resource="http://purl.org/dc/dcmitype/StillImage" />
        <dc:title></dc:title>
      </cc:Work>
    </rdf:RDF>
  </metadata>
  <g
     inkscape:label="Layer 1"
     inkscape:groupmode="layer"
     id="layer1">
    <flowRoot
       xml:space="preserve"
       id="flowRoot3344"
       style="font-style:normal;font-weight:normal;font-size:180px;line-height:125%;font-family:Loma;letter-spacing:0px;word-spacing:0px;fill:#000000;fill-opacity:1;stroke:none;stroke-width:1px;stroke-linecap:butt;stroke-linejoin:miter;stroke-opacity:1;-inkscape-font-specification:Loma;font-stretch:normal;font-variant:normal;"
       transform="matrix(1.504054,0,0,1.4884612,-52.794656,92.964793)"><flowRegion
         id="flowRegion3346"><rect
           id="rect3348"
           width="434.28574"
           height="260"
           x="85.714287"
           y="132.3622"
           style="font-size:180px;-inkscape-font-specification:Loma;font-family:Loma;font-weight:normal;font-style:normal;font-stretch:normal;font-variant:normal;" /></flowRegion><flowPara
         id="flowPara3350">JJMO</flowPara></flowRoot>    <flowRoot
       xml:space="preserve"
       id="flowRoot3352"
       style="font-style:normal;font-weight:normal;font-size:40px;line-height:125%;font-family:sans-serif;letter-spacing:0px;word-spacing:0px;fill:#000000;fill-opacity:1;stroke:none;stroke-width:1px;stroke-linecap:butt;stroke-linejoin:miter;stroke-opacity:1"
       transform="matrix(7.7727826,0,0,7.6700222,42.593205,-1122.2889)"
       inkscape:export-xdpi="90"
       inkscape:export-ydpi="90"><flowRegion
         id="flowRegion3354"><rect
           id="rect3356"
           width="742.85712"
           height="342.85715"
           x="0"
           y="158.07649" /></flowRegion><flowPara
         id="flowPara3358">JJMO</flowPara></flowRoot>    <path
       id="path3362"
       d="m 79.527338,488.48433 c 16.888674,0.38617 33.752242,0.43759 50.626992,1.32191 12.43716,0.67008 24.87891,1.26011 37.33117,1.54901 11.30585,0.20312 22.61418,0.25161 33.92163,0.22797 15.0822,1.38993 26.95712,-2.36844 40.7936,-7.69354 13.36003,-5.76369 25.77867,-13.34203 38.68661,-19.99499 14.4915,-7.66913 30.23432,-12.41481 45.29924,-18.79557 16.51958,-7.53775 34.03502,-12.41225 51.2718,-17.96012 19.73852,-6.68758 40.34525,-9.87431 60.85594,-13.11723 22.45729,-3.50174 45.17837,-4.28026 67.8621,-4.66071 25.33255,-0.32795 50.66846,-0.27477 76.00272,-0.39884 21.75692,0.54999 39.36545,5.42942 58.97472,14.41402 19.25409,10.4974 36.17822,21.29315 51.2062,37.37961 4.78197,6.42225 13.5321,18.74826 14.40395,26.95209 0.88577,8.33488 -1.42697,11.88407 -4.15493,19.81141 -12.88385,24.60968 -32.31989,42.6214 -54.41797,58.78053 -19.64566,12.47872 -38.92735,26.5966 -61.01701,34.30839 -11.43663,3.99268 -23.47166,6.41879 -35.2842,8.96015 -24.64968,5.22986 -49.94721,5.39007 -75.02692,5.96413 -22.77424,0.62333 -45.52429,-0.91065 -68.21072,-2.70808 -19.08062,-1.62869 -37.90946,-5.44928 -55.73919,-12.46723 -6.56481,-3.34085 -13.96618,-7.12731 -17.53363,-13.99407 -1.85539,-3.57132 -2.56454,-7.30907 -3.53692,-11.15854 -1.66964,-11.38985 -3.02608,-23.3976 0.25082,-34.66809 0.81692,-2.80968 2.11411,-5.45684 3.17116,-8.18527 3.90104,-6.65456 4.8827,-9.00882 9.80164,-14.8308 14.03552,-16.61223 44.47227,-29.44207 59.53511,-37.83219 16.42612,-5.00596 32.88735,-9.98423 49.46281,-14.49881 18.15694,-4.04879 36.87205,-4.24889 55.38572,-4.72172 13.65458,-0.62755 27.42555,-0.29725 39.84471,6.09034 2.26141,1.16312 4.33024,2.66763 6.49537,4.00144 6.32111,5.20058 13.36405,10.62518 17.6337,17.80859 1.90004,3.19667 2.43995,5.51195 3.55933,8.98421 0.68224,5.40056 2.94036,11.44098 2.14033,16.98569 -0.17498,1.21276 -0.64417,2.36446 -0.96625,3.5467 -1.27482,1.30431 -2.41112,2.76017 -3.82445,3.91295 -2.58404,2.10767 -10.50872,6.9293 -13.126,8.43522 -18.52819,10.66064 -35.49408,21.47537 -54.64366,29.95556 -6.08147,2.92209 -12.56055,4.46059 -19.25562,4.88098 -7.50609,-0.20295 -15.01617,-0.29455 -22.52683,-0.28416 -4.80688,0.0793 -9.61234,0.0465 -14.41933,0.0335 -6.36632,0.17572 -10.75013,-5.83181 -15.1196,-9.72929 -4.49536,-3.8887 -8.9222,-7.90026 -13.8207,-11.26668 -2.18519,-1.44213 -4.88222,-1.47843 -7.35437,-2.27863 0,0 34.93484,-23.91687 34.93484,-23.91687 l 0,0 c 2.94697,0.73775 5.92022,1.42546 8.27015,3.49265 4.70378,3.72331 9.0639,7.814 13.52975,11.81664 4.32073,3.6025 7.87943,7.62168 13.85298,6.97739 4.71587,0.006 9.42875,0.0232 14.14245,0.19341 7.5362,0.11749 15.10334,0.3173 22.62118,-0.31181 6.18726,-0.79333 12.06778,-2.83996 17.71677,-5.46171 12.88433,-5.99961 36.09775,-20.11866 -16.32203,10.69595 -4.26862,2.50927 8.40032,-5.24638 12.66304,-7.76566 1.32768,-0.78466 2.75203,-1.39286 4.12804,-2.08929 0.60131,-0.522 1.46703,-0.84451 1.80393,-1.56601 1.07948,-2.31178 -0.87558,-13.4175 -1.21738,-16.12222 -3.11187,-11.00709 -9.85591,-17.83912 -19.08116,-24.44749 -2.05914,-1.15373 -4.0402,-2.45943 -6.1774,-3.46118 -12.06128,-5.65332 -25.43396,-5.37202 -38.44496,-5.02832 -18.46255,0.50067 -37.11888,1.09261 -55.09638,5.74234 -16.47737,4.55456 -33.04809,9.06908 -49.0496,15.09299 9.4675,-5.65911 18.96901,-11.26172 28.40251,-16.97733 2.05252,-1.24359 -4.23843,2.26336 -6.25775,3.56017 -2.03341,1.30585 -4.00178,2.71987 -5.88309,4.23668 -6.54665,5.27829 -11.782,11.69272 -16.00453,18.95785 -1.12532,2.46867 -2.49713,4.83922 -3.37595,7.40599 -3.61879,10.56936 -2.10992,22.03076 -0.68286,32.82248 0.79491,3.41639 1.28048,6.54968 2.92665,9.69586 3.1563,6.03232 9.96841,9.31369 15.67316,12.29954 17.50361,6.7703 35.91963,10.35082 54.6224,11.79073 22.45531,1.86898 44.99852,3.19971 67.54101,2.67861 24.98687,-0.52005 50.11725,-1.33403 74.63422,-6.65614 11.9114,-2.72055 23.85905,-5.41139 35.25289,-9.94045 3.01451,-1.19827 11.55149,-5.85615 8.83099,-4.08923 -5.5686,3.61671 -44.31599,26.15389 -17.27475,9.9193 21.83766,-15.21197 41.98566,-32.772 55.036,-56.40664 2.26746,-5.78978 5.0692,-10.62589 4.62675,-17.02489 -0.14813,-2.14248 -1.12683,-4.1505 -1.86936,-6.16565 -2.60958,-7.08217 -6.48824,-13.592 -11.23534,-19.4429 -14.05413,-15.38104 -31.41984,-26.86134 -50.01313,-36.1546 -19.0738,-8.06354 -36.98464,-12.91521 -57.89337,-13.11811 -25.2378,-0.16096 -50.47794,-0.20716 -75.71255,0.30835 -22.68828,0.68437 -45.42006,1.64341 -67.85722,5.34257 -20.48521,3.36169 -41.01491,6.85521 -60.67569,13.75086 -17.26839,5.51192 -34.63745,10.82006 -51.18104,18.32306 -15.21514,6.19434 -30.91038,11.34309 -45.34299,19.30183 -12.81327,6.84199 -25.40877,14.15091 -38.94496,19.52711 -14.39347,5.15705 -26.54223,7.73148 -41.93722,6.70873 -11.39427,-0.0288 -22.79086,0.0733 -34.18319,-0.18214 -12.22966,-0.40326 -24.4166,-1.44813 -36.629951,-2.16859 -17.215211,-0.83787 -34.448407,-0.99897 -51.674918,-0.30515 0,0 34.269987,-24.8986 34.269987,-24.8986 z"
       inkscape:connector-curvature="0"
       inkscape:export-xdpi="90"
       inkscape:export-ydpi="90" />
  </g>
</svg>
